<?xml version="1.0" encoding="UTF-8" standalone="no"?>
<svg
   xmlns:dc="http://purl.org/dc/elements/1.1/"
   xmlns:cc="http://creativecommons.org/ns#"
   xmlns:rdf="http://www.w3.org/1999/02/22-rdf-syntax-ns#"
   xmlns:svg="http://www.w3.org/2000/svg"
   xmlns="http://www.w3.org/2000/svg"
   version="1.1"
   id="svg2"
   viewBox="0 0 1034.328 256.00001"
   height="256"
   width="1034.328">
  <defs
     id="defs4" />
  <metadata
     id="metadata7">
    <rdf:RDF>
      <cc:Work
         rdf:about="">
        <dc:format>image/svg+xml</dc:format>
        <dc:type
           rdf:resource="http://purl.org/dc/dcmitype/StillImage" />
        <dc:title></dc:title>
      </cc:Work>
    </rdf:RDF>
  </metadata>
  <g
     transform="translate(0,-796.36214)"
     id="layer1">
    <g
       transform="matrix(0.98619567,0,0,0.98619567,2.9553282,12.760205)"
       id="text4285"
       style="font-style:normal;font-weight:normal;font-size:40px;line-height:125%;font-family:sans-serif;letter-spacing:0px;word-spacing:0px;fill:#000000;fill-opacity:1;stroke:none;stroke-width:1px;stroke-linecap:butt;stroke-linejoin:miter;stroke-opacity:1">
      <g
         transform="matrix(0.98619572,0,0,0.98619572,18.067992,8.0433473)"
         id="text4528"
         style="font-style:normal;font-weight:normal;font-size:141.95967102px;line-height:125%;font-family:sans-serif;letter-spacing:0px;word-spacing:-12.16797066px;fill:#000000;fill-opacity:1;stroke:none;stroke-width:1px;stroke-linecap:butt;stroke-linejoin:miter;stroke-opacity:1">
        <g
           id="text4150"
           style="font-style:normal;font-weight:normal;font-size:141.95967102px;line-height:125%;font-family:sans-serif;letter-spacing:1.01399755px;word-spacing:-8.11198044px;fill:#000000;fill-opacity:1;stroke:none;stroke-width:1px;stroke-linecap:butt;stroke-linejoin:miter;stroke-opacity:1">
          <path
             id="path4138"
             style="font-style:normal;font-variant:normal;font-weight:normal;font-stretch:normal;font-family:Pacifico;-inkscape-font-specification:Pacifico;letter-spacing:4.05599022px;word-spacing:0px"
             d="m 132.43007,947.99898 q -1.45565,1.52496 -3.74308,3.46581 -2.21812,1.94086 -5.06009,3.95103 -2.77265,1.94085 -6.03051,3.81239 -3.25786,1.87154 -6.65436,3.32718 -3.3965,1.45564 -6.86231,2.28744 -3.39649,0.90111 -6.585042,0.90111 -2.21812,0 -4.505556,-0.76248 -2.21812,-0.76248 -4.089658,-2.77265 -1.802223,-2.07949 -2.980599,-5.68393 -1.178376,-3.60445 -1.178376,-9.3577 0,-2.42606 0.346581,-5.19871 0.346581,-2.84197 0.901111,-6.09983 -3.881709,7.83273 -8.803163,13.86324 -4.852137,5.9612 -10.397437,10.05086 -5.475983,4.02034 -11.367864,6.09983 -5.891881,2.07949 -11.783762,2.07949 -6.44641,0 -12.268975,-2.28744 -5.753249,-2.21812 -10.189488,-6.65436 -4.43624,-4.50555 -7.070257,-11.15991 -2.564701,-6.65436 -2.564701,-15.52684 0,-6.72368 1.524957,-14.0712 1.594274,-7.34752 4.574872,-14.83368 2.980599,-7.48615 7.20889,-14.83367 4.228291,-7.34753 9.634958,-13.93257 5.406667,-6.65436 11.783762,-12.26897 6.446411,-5.68394 13.724616,-9.7736 7.278206,-4.15897 15.318891,-6.51572 8.040684,-2.35675 16.705215,-2.35675 2.356752,0 3.743077,0.41589 1.455641,0.34658 2.148804,0.97043 0.762478,0.55453 0.970427,1.17838 0.207949,0.62384 0.207949,1.10906 0,0.34658 -0.06932,0.62384 0,0.27727 0,0.4159 l 0,0.34658 q 1.871534,1.10906 3.812394,1.38633 1.94085,0.20795 3.81239,0.41589 1.87154,0.13864 3.53513,0.69317 1.66359,0.55453 2.91128,2.21812 1.2477,1.59427 1.94086,4.7135 0.76248,3.11923 0.76248,8.45658 0,4.15898 -0.8318,9.3577 -0.76248,5.19871 -2.07949,10.88265 -1.317,5.68393 -2.98059,11.50649 -1.59428,5.82257 -3.25787,11.29855 -1.59427,5.47598 -3.11923,10.32812 -1.52496,4.85214 -2.5647,8.45658 -0.20795,3.04992 -0.34658,5.68394 -0.13863,2.63401 -0.13863,5.47598 0,2.21812 0.0693,3.67376 0.13864,1.38633 0.4159,2.21812 0.27727,0.8318 0.76248,1.17838 0.48521,0.27726 1.24769,0.27726 1.38633,0 3.46581,-0.69316 2.14881,-0.76248 4.50556,-1.87154 2.42607,-1.17838 4.99077,-2.5647 2.63402,-1.45564 4.99077,-2.84197 2.42607,-1.45564 4.50556,-2.63401 2.07948,-1.17838 3.46581,-1.94086 l 3.53513,13.51667 z M 99.643482,858.37307 q -2.426069,-0.69316 -5.060086,-0.97042 -2.564701,-0.34659 -4.99077,-0.34659 -5.614616,0 -11.090599,2.14881 -5.475984,2.1488 -10.674702,5.89188 -5.129402,3.67376 -9.842907,8.73385 -4.644188,4.99077 -8.733847,10.81333 -4.020342,5.75325 -7.278206,11.99171 -3.257863,6.23846 -5.614615,12.47693 -2.356753,6.16914 -3.604445,12.06102 -1.247693,5.82257 -1.247693,10.74402 0,9.77359 3.88171,15.18026 3.951026,5.33735 12.199659,5.33735 5.129403,0 9.704275,-2.14881 4.644188,-2.1488 8.595214,-5.61461 3.951026,-3.53513 7.20889,-7.90205 3.32718,-4.43624 5.753248,-8.9418 2.495385,-4.50555 4.089659,-8.66453 1.594273,-4.22829 2.287436,-7.27821 l 14.417779,-53.51214 z" />
          <path
             id="path4140"
             style="font-style:normal;font-variant:normal;font-weight:normal;font-stretch:normal;font-family:Pacifico;-inkscape-font-specification:Pacifico;letter-spacing:4.05599022px;word-spacing:0px"
             d="m 144.18016,963.52582 q -3.74307,0 -7.00094,-3.25787 -3.18854,-3.32718 -5.61461,-8.87248 -2.35676,-5.54529 -3.74308,-12.8235 -1.31701,-7.34752 -1.31701,-15.38821 0,-6.16914 0.90111,-13.37803 0.90111,-7.27821 2.63402,-14.97231 1.73291,-7.6941 4.08966,-15.45752 2.42607,-7.76342 5.40667,-14.903 3.04991,-7.13957 6.58504,-13.30872 3.53513,-6.23846 7.41684,-10.81333 3.88171,-4.64419 8.11,-7.27821 4.22829,-2.63401 8.59521,-2.63401 2.9806,0 4.92146,1.38632 1.94085,1.31701 3.04991,3.53513 1.10906,2.21812 1.52496,5.06009 0.48521,2.77265 0.48521,5.68393 0,6.51572 -1.52496,13.30872 -1.45564,6.72367 -4.02034,13.58598 -2.49538,6.79299 -5.82256,13.6553 -3.32718,6.86231 -6.93163,13.6553 -3.60444,6.72368 -7.2782,13.30872 -3.60445,6.51573 -6.793,12.75419 -0.34658,0.69316 -0.76247,1.80222 -0.34659,1.10906 -0.69317,2.42607 -0.34658,1.24769 -0.69316,2.70333 -0.34658,1.45565 -0.55453,2.84197 l 0,0.97043 q 0,1.80222 0.34658,3.53513 0.4159,1.66359 0.97043,3.04991 0.55453,1.31701 1.17838,2.14881 0.62384,0.76247 1.17837,0.76247 1.31701,0 2.9806,-0.55453 1.73291,-0.55453 3.60445,-1.45564 1.94085,-0.97042 3.95102,-2.1488 2.01017,-1.24769 3.88171,-2.49539 4.36692,-2.91128 9.14975,-6.72367 l 5.68393,14.55641 q -6.16915,4.43624 -12.19966,7.90205 -2.63402,1.45564 -5.47599,2.91128 -2.77264,1.38633 -5.61461,2.49539 -2.84197,1.10906 -5.5453,1.80222 -2.70333,0.62385 -5.06009,0.62385 z m 0.0693,-55.453 q 3.11923,-5.5453 6.58504,-12.47692 3.53513,-6.93163 6.65436,-14.27915 3.11923,-7.34752 5.40667,-14.62573 2.28744,-7.34752 2.91128,-13.6553 0,-2.01017 -0.13863,-3.39649 -0.0693,-1.45564 -0.62385,-1.45564 -2.01017,0 -4.36692,2.63401 -2.28744,2.5647 -4.64419,7.00094 -2.28743,4.43624 -4.43624,10.32812 -2.07949,5.89188 -3.74308,12.54624 -1.66359,6.65436 -2.63401,13.72462 -0.97043,7.00094 -0.97043,13.6553 z" />
          <path
             id="path4142"
             style="font-style:normal;font-variant:normal;font-weight:normal;font-stretch:normal;font-family:Pacifico;-inkscape-font-specification:Pacifico;letter-spacing:4.05599022px;word-spacing:0px"
             d="m 172.7048,941.06735 q -0.20795,-5.19871 -0.4159,-9.01111 -0.20795,-3.88171 -0.4159,-7.00094 -0.13863,-3.11923 -0.20795,-5.75325 -0.0693,-2.63401 -0.0693,-5.40666 0,-7.13958 0.62384,-11.0906 0.69316,-4.02035 2.91128,-4.36693 l 8.31795,-1.31701 q 0.34658,-0.0693 0.62385,-0.0693 0.34658,-0.0693 0.69316,-0.0693 2.35675,0 3.60445,1.38633 1.31701,1.38632 1.38632,3.18854 l -2.70333,43.87719 0.97043,-0.0693 18.23017,-43.46128 q 0.20795,-0.97043 0.90111,-1.87154 0.69316,-0.90111 1.80222,-1.52496 1.10906,-0.69316 2.42607,-1.10906 1.38633,-0.4159 2.91128,-0.4159 4.02035,0 6.44641,1.66359 2.42607,1.59428 2.42607,4.15898 0,1.94085 -0.55453,3.67376 -0.48521,1.7329 -1.45564,3.81239 -0.90111,2.01017 -2.21812,4.50556 -1.24769,2.49538 -2.77265,5.89188 -0.48521,1.24769 -0.83179,2.5647 -0.34658,1.17838 -0.62385,2.70333 -0.20795,1.45564 -0.20795,3.04992 0,1.66359 0.4159,3.25786 0.4159,1.59427 1.45564,2.91128 1.03974,1.2477 2.84197,2.01017 1.80222,0.76248 4.64418,0.76248 2.07949,0 4.78283,-1.03974 2.77265,-1.10906 5.19871,-2.49539 2.84197,-1.59427 5.82257,-3.60444 l 0,16.28932 q -4.57487,2.91128 -9.49633,4.64419 -4.85213,1.7329 -9.28837,1.7329 -3.74308,0 -6.72368,-1.10906 -2.91128,-1.17837 -4.99077,-3.11923 -2.01017,-1.94085 -3.18855,-4.36692 -1.10906,-2.42607 -1.17837,-5.06009 -2.01017,4.15898 -4.57487,8.5259 -2.56471,4.36692 -5.33736,7.90205 -2.70333,3.53513 -5.47598,5.82257 -2.70333,2.21812 -5.1294,2.21812 -4.02034,0 -6.23846,-2.01017 -2.21812,-2.07949 -3.32718,-5.19872 -1.03975,-3.11923 -1.38633,-6.793 -0.27726,-3.67376 -0.48521,-7.00094 l -0.13863,-2.21812 z" />
          <path
             id="path4144"
             style="font-style:normal;font-variant:normal;font-weight:normal;font-stretch:normal;font-family:Pacifico;-inkscape-font-specification:Pacifico;letter-spacing:4.05599022px;word-spacing:0px"
             d="m 275.18985,910.29094 q 0.55453,-2.35675 1.94085,-4.15897 1.45564,-1.87154 3.25786,-3.11923 1.87154,-1.2477 3.88171,-1.87154 2.01018,-0.62385 3.8124,-0.62385 2.1488,0 3.60444,0.97043 1.45564,0.90111 1.45564,2.91128 0,0.62385 -0.20795,1.45564 -0.41589,1.80222 -1.03974,4.92145 -0.62385,3.11924 -1.38632,7.07026 -0.69317,3.95103 -1.45565,8.38727 -0.76247,4.36692 -1.45564,8.73384 -1.7329,10.25881 -3.53512,22.04257 2.07948,-1.17838 4.50555,-2.91128 2.42607,-1.73291 5.40667,-4.64419 2.9806,-2.91128 6.65436,-7.27821 3.67376,-4.43624 8.24863,-11.02128 l 3.32718,15.38821 q -1.24769,2.1488 -3.25786,4.43624 -1.94086,2.21812 -4.36693,4.50555 -2.35675,2.21812 -4.99077,4.36693 -2.5647,2.07948 -5.06008,3.95102 -5.89188,4.43624 -12.68487,8.59522 -1.31701,7.41684 -3.11924,14.41778 -1.80222,7.07025 -4.2976,13.17008 -2.42607,6.16914 -5.61462,11.29854 -3.11923,5.1294 -7.13957,8.8032 -3.95103,3.6737 -8.87248,5.6839 -4.92145,2.0795 -10.88265,2.0795 -2.35675,0 -5.1294,-0.4852 -2.70334,-0.4852 -5.06009,-1.9409 -2.28744,-1.4556 -3.81239,-4.1589 -1.52496,-2.7034 -1.52496,-7.2089 0,-3.1193 1.59427,-7.0703 1.59428,-3.8817 4.36693,-8.24863 2.77265,-4.29761 6.58504,-9.01111 3.81239,-4.64419 8.24863,-9.28838 4.50556,-4.64419 9.3577,-9.14974 4.92145,-4.50556 9.91222,-8.59522 l 1.87154,-6.44641 q -3.74308,3.32718 -7.83274,5.40667 -4.02034,2.01017 -7.83273,2.01017 -3.32718,0 -6.51573,-1.31701 -3.11923,-1.38632 -5.5453,-3.88171 -2.42607,-2.5647 -3.88171,-6.16914 -1.45564,-3.67376 -1.45564,-8.24864 0,-6.03051 0.55453,-11.0906 0.62384,-5.06008 1.7329,-9.63495 1.10906,-4.57488 2.77265,-8.80317 1.66359,-4.29761 3.8124,-8.66453 1.59427,-3.11923 4.57487,-4.7135 2.9806,-1.66359 5.82256,-1.66359 2.42607,0 4.15898,1.24769 1.73291,1.17838 1.73291,3.74308 0,0.76248 -0.20795,1.66359 -0.13864,0.90111 -0.55453,1.94085 -1.2477,3.18855 -2.49539,7.55547 -1.17837,4.29761 -2.1488,8.87248 -0.90111,4.50556 -1.45564,8.87248 -0.55453,4.36692 -0.55453,7.6941 0,1.73291 0.20795,3.3965 0.27726,1.59427 0.90111,2.91128 0.62384,1.2477 1.66359,2.07949 1.03974,0.76248 2.63401,0.76248 2.56471,0 4.64419,-2.21812 2.07949,-2.21812 3.60445,-5.33735 1.52495,-3.11923 2.42607,-6.44641 0.97042,-3.32718 1.24769,-5.5453 l 4.85214,-20.37898 z m -32.44001,104.25166 q 2.91129,0 5.47599,-1.7329 2.63401,-1.6636 4.78282,-4.4363 2.21812,-2.7726 4.02034,-6.3077 1.80222,-3.53518 3.18855,-7.27826 1.38632,-3.67376 2.35675,-7.20888 0.97043,-3.53513 1.52496,-6.30778 -2.70334,1.80222 -5.5453,4.2976 -2.77265,2.49539 -5.47599,5.33735 -2.63401,2.91129 -5.06008,5.9612 -2.35675,3.04992 -4.15898,5.82257 -1.80222,2.842 -2.84196,5.268 -1.03975,2.4261 -1.03975,4.0204 0,2.5647 2.77265,2.5647 z" />
          <path
             id="path4146"
             style="font-style:normal;font-variant:normal;font-weight:normal;font-stretch:normal;font-family:Pacifico;-inkscape-font-specification:Pacifico;letter-spacing:4.05599022px;word-spacing:0px"
             d="m 323.53894,963.52582 q -3.74308,0 -7.00095,-3.25787 -3.18854,-3.32718 -5.61461,-8.87248 -2.35675,-5.54529 -3.74308,-12.8235 -1.31701,-7.34752 -1.31701,-15.38821 0,-6.16914 0.90111,-13.37803 0.90112,-7.27821 2.63402,-14.97231 1.73291,-7.6941 4.08966,-15.45752 2.42607,-7.76342 5.40667,-14.903 3.04991,-7.13957 6.58504,-13.30872 3.53513,-6.23846 7.41684,-10.81333 3.88171,-4.64419 8.11,-7.27821 4.22829,-2.63401 8.59521,-2.63401 2.9806,0 4.92146,1.38632 1.94085,1.31701 3.04991,3.53513 1.10906,2.21812 1.52496,5.06009 0.48521,2.77265 0.48521,5.68393 0,6.51572 -1.52495,13.30872 -1.45565,6.72367 -4.02035,13.58598 -2.49538,6.79299 -5.82256,13.6553 -3.32718,6.86231 -6.93163,13.6553 -3.60444,6.72368 -7.2782,13.30872 -3.60445,6.51573 -6.79299,12.75419 -0.34658,0.69316 -0.76248,1.80222 -0.34658,1.10906 -0.69316,2.42607 -0.34659,1.24769 -0.69317,2.70333 -0.34658,1.45565 -0.55453,2.84197 l 0,0.97043 q 0,1.80222 0.34658,3.53513 0.4159,1.66359 0.97043,3.04991 0.55453,1.31701 1.17838,2.14881 0.62384,0.76247 1.17837,0.76247 1.31701,0 2.9806,-0.55453 1.73291,-0.55453 3.60445,-1.45564 1.94085,-0.97042 3.95102,-2.1488 2.01017,-1.24769 3.88171,-2.49539 4.36693,-2.91128 9.14975,-6.72367 l 5.68393,14.55641 q -6.16915,4.43624 -12.19966,7.90205 -2.63402,1.45564 -5.47598,2.91128 -2.77265,1.38633 -5.61462,2.49539 -2.84196,1.10906 -5.5453,1.80222 -2.70333,0.62385 -5.06008,0.62385 z m 0.0693,-55.453 q 3.11923,-5.5453 6.58505,-12.47692 3.53512,-6.93163 6.65435,-14.27915 3.11924,-7.34752 5.40667,-14.62573 2.28744,-7.34752 2.91128,-13.6553 0,-2.01017 -0.13863,-3.39649 -0.0693,-1.45564 -0.62384,-1.45564 -2.01018,0 -4.36693,2.63401 -2.28743,2.5647 -4.64419,7.00094 -2.28743,4.43624 -4.43624,10.32812 -2.07948,5.89188 -3.74307,12.54624 -1.66359,6.65436 -2.63402,13.72462 -0.97043,7.00094 -0.97043,13.6553 z" />
          <path
             id="path4148"
             style="font-style:normal;font-variant:normal;font-weight:normal;font-stretch:normal;font-family:Pacifico;-inkscape-font-specification:Pacifico;letter-spacing:4.05599022px;word-spacing:0px"
             d="m 465.60357,940.09693 q -3.3965,1.45564 -6.58504,3.88171 -3.18855,2.35675 -6.44641,5.19872 -3.25787,2.84196 -6.793,6.03051 -3.46581,3.11923 -7.55547,6.23846 -4.02034,3.04992 -8.80316,5.82257 -4.78282,2.84196 -10.60539,4.92145 -5.75324,2.1488 -12.75418,3.39649 -6.93163,1.2477 -15.38821,1.2477 -9.35769,0 -16.91316,-3.8124 -7.48616,-3.74307 -12.82351,-10.12017 -5.33735,-6.44641 -8.24863,-14.90299 -2.84197,-8.5259 -2.84197,-17.88359 0,-6.3771 1.38633,-13.6553 1.38632,-7.34752 3.95102,-14.903 2.63402,-7.62478 6.3771,-15.18025 3.74307,-7.55547 8.45658,-14.4871 4.78282,-6.93162 10.46675,-12.8235 5.68393,-5.9612 12.13034,-10.32812 6.44641,-4.43624 13.58599,-6.93163 7.13957,-2.49538 14.83367,-2.49538 4.99077,0 10.12018,1.80222 5.1294,1.7329 9.21906,5.40667 4.08966,3.67376 6.65436,9.28837 2.63401,5.61462 2.63401,13.23941 0,5.1294 -1.66359,10.39743 -1.59427,5.19872 -4.43624,10.05086 -2.84196,4.78282 -6.72367,9.01111 -3.81239,4.22829 -8.24863,7.34752 -4.43624,3.04992 -9.21907,4.85214 -4.78282,1.80222 -9.56564,1.80222 -6.30778,0 -9.42701,-1.66359 -3.11923,-1.7329 -3.11923,-4.92145 0,-0.55453 -0.0693,-1.31701 0,-0.76248 0,-1.59427 0,-1.2477 0.13863,-2.56471 0.13863,-1.38632 0.55453,-2.49538 0.4159,-1.10906 1.17837,-1.80222 0.8318,-0.69317 2.21812,-0.69317 0.8318,0 1.45565,0.27727 0.62384,0.20795 1.38632,0.48521 0.76248,0.27727 1.80222,0.55453 1.10906,0.20795 2.77265,0.20795 4.43624,0 8.9418,-1.94085 4.57487,-1.94086 8.17932,-5.47599 3.67376,-3.53512 5.96119,-8.38726 2.35676,-4.92146 2.35676,-10.81334 0,-3.11923 -0.8318,-5.89188 -0.83179,-2.84196 -2.70333,-4.92145 -1.87154,-2.1488 -4.85214,-3.3965 -2.91128,-1.31701 -7.13957,-1.31701 -4.99077,0 -9.77359,2.21812 -4.71351,2.14881 -9.08043,5.89189 -4.36693,3.74307 -8.31795,8.87247 -3.88171,5.12941 -7.20889,11.02129 -3.32718,5.82256 -6.03052,12.19966 -2.63401,6.30778 -4.50555,12.61555 -1.87154,6.30778 -2.91128,12.26898 -0.97043,5.89188 -0.97043,10.88265 0,7.13957 1.73291,12.47692 1.80222,5.26804 5.06008,8.80317 3.25786,3.53513 7.97137,5.26803 4.7135,1.73291 10.60539,1.73291 7.34752,0 13.6553,-1.80222 6.37709,-1.87154 12.13034,-4.85214 5.75325,-2.9806 11.0906,-6.72368 5.40666,-3.74307 10.74402,-7.48615 5.40666,-3.8124 10.95196,-7.20889 5.61462,-3.46581 11.85308,-5.82257 l 0,14.903 z" />
          <path
             id="path4150"
             style="font-style:normal;font-variant:normal;font-weight:normal;font-stretch:normal;font-family:Pacifico;-inkscape-font-specification:Pacifico;letter-spacing:4.05599022px;word-spacing:0px"
             d="m 498.4951,911.60795 q 2.01017,4.02034 2.9806,8.5259 1.03975,4.43624 1.03975,8.5259 0,4.08965 -0.90112,8.24863 -0.90111,4.15897 -2.63401,8.04068 -1.66359,3.88171 -4.15898,7.27821 -2.42607,3.3965 -5.61461,5.89188 -3.11923,2.49539 -6.86231,3.95103 -3.74308,1.45564 -7.97137,1.45564 -6.09983,0 -10.46675,-2.63402 -4.29761,-2.70333 -7.07026,-7.00094 -2.77265,-4.29761 -4.08966,-9.70427 -1.24769,-5.40667 -1.24769,-10.95197 0,-7.62479 2.28744,-14.20983 2.28743,-6.65436 6.51572,-11.5065 4.29761,-4.92145 10.46676,-7.6941 6.16914,-2.84197 13.86324,-2.84197 6.58505,0 12.3383,2.07949 5.75324,2.01017 10.74401,5.47598 5.06009,3.3965 9.3577,7.83274 4.36692,4.43624 8.11,9.14974 l -1.31701,9.77359 q -1.87154,-2.49538 -5.06009,-5.40666 -3.18854,-2.91129 -6.79299,-5.68394 -3.53513,-2.77265 -7.00094,-5.19871 -3.46581,-2.49539 -5.9612,-4.15898 l -0.55453,0.76248 z m -21.41872,38.60915 q 2.35676,0 4.57488,-2.35675 2.21812,-2.42607 3.88171,-6.03052 1.66359,-3.67376 2.63401,-8.04068 1.03975,-4.43624 1.03975,-8.45658 0,-3.18855 -0.48522,-5.89188 -0.48521,-2.77265 -1.45564,-4.78283 -0.97043,-2.01017 -2.49538,-3.18854 -1.52496,-1.17838 -3.67376,-1.17838 -2.84197,0 -5.40667,2.42607 -2.5647,2.42607 -4.50556,6.23846 -1.94085,3.74308 -3.04991,8.31795 -1.10906,4.57487 -1.10906,8.80316 0,2.91129 0.55453,5.47599 0.55453,2.5647 1.7329,4.50555 1.17838,1.87154 3.11924,3.04992 1.94085,1.10906 4.64418,1.10906 z" />
          <path
             id="path4152"
             style="font-style:normal;font-variant:normal;font-weight:normal;font-stretch:normal;font-family:Pacifico;-inkscape-font-specification:Pacifico;letter-spacing:4.05599022px;word-spacing:0px"
             d="m 520.43468,949.03872 q 0,-4.57487 0.55453,-10.53607 0.55453,-6.03051 1.38633,-12.19966 0.83179,-6.23846 1.87154,-11.99171 1.03974,-5.75324 2.01017,-9.8429 0.76248,-3.18855 2.91128,-5.33735 2.21812,-2.14881 5.9612,-2.14881 3.74308,0 5.19872,2.28744 1.45564,2.28743 1.45564,6.09983 0,1.03974 -0.20795,2.84196 -0.20795,1.73291 -0.55453,3.88171 -0.27727,2.07949 -0.62385,4.36693 -0.34658,2.21812 -0.69316,4.15897 -0.27726,1.87154 -0.48521,3.32718 -0.20795,1.38633 -0.20795,1.87154 l 1.38632,0 q 0.4159,-0.76248 1.31701,-2.42607 0.90111,-1.7329 2.07949,-3.95102 1.17838,-2.21812 2.49538,-4.64419 1.38633,-2.49539 2.56471,-4.71351 1.17837,-2.28743 2.1488,-4.02034 0.97043,-1.73291 1.45564,-2.5647 2.21812,-3.74308 5.06009,-5.1294 2.84196,-1.38633 6.30777,-1.38633 3.46582,0 5.47599,2.91128 2.07949,2.91129 2.07949,8.04069 0,0.76248 -0.34659,2.5647 -0.27726,1.80222 -0.76247,4.29761 -0.48522,2.49538 -1.10906,5.47598 -0.55453,2.9806 -1.03975,6.09983 -0.48521,3.11923 -0.83179,6.16915 -0.27727,3.04991 -0.27727,5.61461 0,4.29761 1.03975,7.07026 1.10906,2.77265 3.39649,2.77265 1.03974,0 2.35675,-0.62385 1.38633,-0.62384 2.91129,-1.59427 1.59427,-1.03974 3.18854,-2.35675 1.66359,-1.31701 3.25787,-2.70334 3.67376,-3.25786 7.6941,-7.34752 l 1.17838,15.52684 -3.46582,2.63402 q -2.84196,2.1488 -5.82256,4.2976 -2.91128,2.14881 -6.09983,3.88171 -3.18855,1.66359 -6.65436,2.77265 -3.46581,1.03975 -7.27821,1.03975 -3.81239,0 -6.44641,-5.47599 -2.5647,-5.5453 -2.5647,-16.15068 0,-4.15898 0.55453,-8.9418 0.55453,-4.85213 1.38633,-10.39743 l -1.10906,0 -18.16086,36.04444 q -1.38632,2.84197 -3.11923,3.88171 -1.73291,1.03975 -4.02034,1.03975 -2.84197,0 -4.57487,-1.17838 -1.73291,-1.24769 -2.70334,-3.25786 -0.90111,-2.07949 -1.24769,-4.64419 -0.27727,-2.63402 -0.27727,-5.40667 z" />
          <path
             id="path4154"
             style="font-style:normal;font-variant:normal;font-weight:normal;font-stretch:normal;font-family:Pacifico;-inkscape-font-specification:Pacifico;letter-spacing:4.05599022px;word-spacing:0px"
             d="m 586.59803,936.90838 q 3.88171,-3.32718 6.30778,-5.5453 2.42607,-2.21812 4.15898,-4.02034 1.7329,-1.87154 3.11923,-3.74308 1.45564,-1.87154 3.39649,-4.43624 1.94086,-2.5647 4.71351,-6.23846 2.77265,-3.74308 7.20889,-9.28838 0.90111,-1.24769 2.01017,-2.42607 1.10906,-1.17837 2.42607,-2.07948 1.38632,-0.97043 2.9806,-1.52496 1.66359,-0.62385 3.67376,-0.62385 3.32718,0 5.1294,0.76248 1.80222,0.69316 2.63402,1.73291 0.83179,1.03974 0.97043,2.21812 0.13863,1.10906 0.13863,1.94085 0,1.66359 -1.31701,3.67376 -1.31701,2.01017 -2.91128,3.88171 -1.59428,1.87154 -3.04992,3.46581 -1.38632,1.52496 -1.59427,2.28744 0,2.1488 0.27726,3.95103 0.34658,1.7329 0.8318,3.46581 0.55453,1.66359 1.10906,3.60444 0.55453,1.87154 1.03974,4.36693 0.55453,2.49538 0.8318,5.75325 0.34658,3.25786 0.34658,7.6941 2.49538,-1.66359 5.33735,-2.9806 2.91128,-1.38632 6.03051,-2.84197 3.11923,-1.45564 6.3771,-3.18854 3.32718,-1.80223 6.65436,-4.29761 l 0.0693,15.52684 q -4.2976,3.32718 -9.98154,6.23846 -5.61461,2.91128 -11.85307,5.1294 -6.16915,2.21812 -12.54625,3.53513 -6.30777,1.24769 -11.99171,1.24769 -4.08965,0 -7.62478,-0.76247 -3.53513,-0.76248 -6.23846,-2.35676 -2.63402,-1.66359 -4.29761,-4.2976 -1.66359,-2.63402 -2.01017,-6.3771 -0.97043,0.20795 -1.94086,0.27727 -0.90111,0.0693 -1.80222,0.0693 -1.10906,0 -2.07949,-0.0693 -0.97043,-0.0693 -1.66359,-0.48522 -0.69316,-0.48521 -1.10906,-1.45564 -0.4159,-1.03974 -0.4159,-2.91128 0,-1.66359 0.8318,-3.04992 0.83179,-1.45564 1.94085,-2.5647 1.10906,-1.10906 2.21812,-1.94085 1.10906,-0.8318 1.66359,-1.31701 z m 8.87248,8.87248 q 0.8318,0 1.80223,1.03974 1.03974,1.03975 2.35675,2.28744 1.31701,1.24769 3.04991,2.28743 1.73291,1.03975 3.95103,1.03975 2.70333,0 4.43624,-0.90111 1.80222,-0.90111 2.84197,-2.35675 1.03974,-1.52496 1.45564,-3.46582 0.41589,-2.01017 0.41589,-4.15897 0,-1.87154 -0.27726,-3.8124 -0.20795,-1.94085 -0.62385,-3.67376 -0.34658,-1.80222 -0.83179,-3.32718 -0.4159,-1.59427 -0.76248,-2.70333 l -17.81428,17.74496 z" />
          <path
             id="path4156"
             style="font-style:normal;font-variant:normal;font-weight:normal;font-stretch:normal;font-family:Pacifico;-inkscape-font-specification:Pacifico;letter-spacing:4.05599022px;word-spacing:0px"
             d="m 704.60996,901.48778 q 0,1.87154 -0.4159,5.1294 -0.4159,3.18855 -1.10906,7.07026 -0.62385,3.81239 -1.38632,7.90205 -0.76248,4.08966 -1.45565,7.62479 -0.62384,3.53512 -1.03974,6.23846 -0.4159,2.63402 -0.4159,3.67376 0,1.94085 0.0693,3.60444 0.0693,1.59428 0.4159,2.84197 0.34658,1.17838 1.03974,1.87154 0.76248,0.62385 2.1488,0.62385 1.52496,0 3.67376,-0.76248 2.21812,-0.76248 4.64419,-2.01017 2.49539,-1.31701 5.06009,-2.91129 2.5647,-1.66359 4.85214,-3.46581 2.35675,-1.80222 4.22829,-3.53513 1.94085,-1.80222 3.11923,-3.32718 0,2.28744 0,4.15898 0.0693,1.87154 0.0693,3.60444 0,1.66359 0,3.46581 0.0693,1.80223 0.0693,4.02035 -1.52496,1.52495 -3.81239,3.25786 -2.21812,1.73291 -4.99077,3.46581 -2.70334,1.73291 -5.82257,3.32718 -3.04991,1.59428 -6.16914,2.84197 -3.11923,1.17837 -6.16915,1.94085 -3.04991,0.69317 -5.68393,0.69317 -2.63402,0 -4.50556,-1.03975 -1.87154,-1.03974 -3.25786,-2.91128 -1.31701,-1.87154 -2.28744,-4.43624 -0.90111,-2.63402 -1.59427,-5.82256 -2.49538,3.25786 -5.26803,6.03051 -2.77265,2.70333 -5.68394,4.7135 -2.84196,2.01017 -5.82256,3.18855 -2.91128,1.10906 -5.68393,1.10906 -2.28744,0 -4.29761,-0.76248 -2.01017,-0.76248 -3.60445,-2.5647 -1.52495,-1.80222 -2.42606,-4.7135 -0.90112,-2.9806 -0.90112,-7.34753 0,-5.33735 1.2477,-13.58598 1.31701,-8.24863 3.18854,-18.85402 0.13864,-1.03974 0.48522,-2.77265 0.4159,-1.80222 1.03974,-3.88171 0.69316,-2.07949 1.66359,-4.22829 0.97043,-2.1488 2.28744,-3.88171 1.31701,-1.73291 3.04991,-2.84197 1.80222,-1.10906 4.02034,-1.17837 3.67377,0.13863 5.26804,0.97043 1.59427,0.76247 1.59427,1.94085 -0.62384,3.67376 -1.38632,8.17932 -0.69316,4.50555 -1.45564,9.08043 -0.76248,4.57487 -1.45564,8.94179 -0.69317,4.29761 -1.2477,7.6941 -0.55453,3.3965 -0.90111,5.47599 -0.27726,2.07949 -0.27726,2.1488 0,1.24769 0.20795,2.42607 0.27726,1.10906 0.76247,2.01017 0.48522,0.90111 1.2477,1.45564 0.76248,0.55453 1.80222,0.55453 1.52496,0 3.11923,-0.76248 1.59427,-0.83179 2.9806,-2.28743 1.45564,-1.52496 2.5647,-3.67376 1.10906,-2.21812 1.66359,-4.99077 l 6.86231,-35.21266 q 0.34658,-1.66359 2.77265,-2.77265 2.49538,-1.17837 5.61461,-1.17837 3.53513,0 5.61462,1.24769 2.07949,1.24769 2.07949,3.18855 z" />
          <path
             id="path4158"
             style="font-style:normal;font-variant:normal;font-weight:normal;font-stretch:normal;font-family:Pacifico;-inkscape-font-specification:Pacifico;letter-spacing:4.05599022px;word-spacing:0px"
             d="m 739.09576,963.52582 q -3.74308,0 -7.00094,-3.25787 -3.18855,-3.32718 -5.61462,-8.87248 -2.35675,-5.54529 -3.74307,-12.8235 -1.31701,-7.34752 -1.31701,-15.38821 0,-6.16914 0.90111,-13.37803 0.90111,-7.27821 2.63402,-14.97231 1.7329,-7.6941 4.08965,-15.45752 2.42607,-7.76342 5.40667,-14.903 3.04992,-7.13957 6.58504,-13.30872 3.53513,-6.23846 7.41684,-10.81333 3.88171,-4.64419 8.11,-7.27821 4.22829,-2.63401 8.59522,-2.63401 2.9806,0 4.92145,1.38632 1.94086,1.31701 3.04992,3.53513 1.10906,2.21812 1.52495,5.06009 0.48522,2.77265 0.48522,5.68393 0,6.51572 -1.52496,13.30872 -1.45564,6.72367 -4.02034,13.58598 -2.49539,6.79299 -5.82257,13.6553 -3.32718,6.86231 -6.93162,13.6553 -3.60445,6.72368 -7.27821,13.30872 -3.60444,6.51573 -6.79299,12.75419 -0.34658,0.69316 -0.76248,1.80222 -0.34658,1.10906 -0.69316,2.42607 -0.34658,1.24769 -0.69316,2.70333 -0.34658,1.45565 -0.55453,2.84197 l 0,0.97043 q 0,1.80222 0.34658,3.53513 0.4159,1.66359 0.97043,3.04991 0.55453,1.31701 1.17837,2.14881 0.62385,0.76247 1.17838,0.76247 1.31701,0 2.9806,-0.55453 1.7329,-0.55453 3.60444,-1.45564 1.94086,-0.97042 3.95103,-2.1488 2.01017,-1.24769 3.88171,-2.49539 4.36692,-2.91128 9.14974,-6.72367 l 5.68393,14.55641 q -6.16914,4.43624 -12.19966,7.90205 -2.63401,1.45564 -5.47598,2.91128 -2.77265,1.38633 -5.61461,2.49539 -2.84197,1.10906 -5.5453,1.80222 -2.70334,0.62385 -5.06009,0.62385 z m 0.0693,-55.453 q 3.11923,-5.5453 6.58504,-12.47692 3.53513,-6.93163 6.65436,-14.27915 3.11923,-7.34752 5.40667,-14.62573 2.28743,-7.34752 2.91128,-13.6553 0,-2.01017 -0.13863,-3.39649 -0.0693,-1.45564 -0.62385,-1.45564 -2.01017,0 -4.36692,2.63401 -2.28744,2.5647 -4.64419,7.00094 -2.28744,4.43624 -4.43624,10.32812 -2.07949,5.89188 -3.74308,12.54624 -1.66359,6.65436 -2.63402,13.72462 -0.97042,7.00094 -0.97042,13.6553 z" />
          <path
             id="path4160"
             style="font-style:normal;font-variant:normal;font-weight:normal;font-stretch:normal;font-family:Pacifico;-inkscape-font-specification:Pacifico;letter-spacing:4.05599022px;word-spacing:0px"
             d="m 825.29147,947.99898 q -6.65436,3.88171 -11.85308,6.79299 -5.19872,2.91128 -9.28838,4.85214 -4.02034,1.94085 -7.20888,2.91128 -3.11924,0.97043 -5.68394,0.97043 -5.26803,0 -9.28837,-3.18855 -4.02035,-3.18855 -6.72368,-9.14974 -2.70333,-6.03052 -4.08966,-14.55642 -1.31701,-8.52589 -1.31701,-19.2006 0,-4.15897 0.34658,-8.87247 0.34659,-4.71351 0.97043,-9.3577 -2.07949,-0.27726 -3.25786,-0.48521 -1.10906,-0.27727 -2.42607,-0.48522 -1.24769,-0.27726 -3.25786,-0.55453 -1.94086,-0.27726 -5.68394,-0.69316 -1.66359,-0.20795 -2.5647,-0.76248 -0.90111,-0.62384 -1.31701,-1.38632 -0.41589,-0.8318 -0.48521,-1.66359 -0.0693,-0.90111 -0.0693,-1.52496 0,-1.38632 1.38633,-2.07949 1.31701,-0.76247 3.46581,-1.10906 2.07949,-0.34658 4.57487,-0.34658 2.5647,-0.0693 4.85214,0 2.35675,0.0693 4.15898,0.13864 1.87153,0 2.5647,-0.13864 1.87154,-9.35769 4.7135,-18.09154 2.91128,-8.80316 6.44641,-15.59615 3.60445,-6.86231 7.83274,-10.95197 4.22829,-4.15897 8.87248,-4.15897 2.9806,0 5.40666,1.66359 2.49539,1.66359 4.2283,4.43624 1.7329,2.77265 2.63401,6.51572 0.97043,3.67376 0.97043,7.69411 0,3.39649 -0.97043,7.20889 -0.97042,3.74307 -2.63401,7.6941 -1.66359,3.88171 -3.95103,7.90205 -2.21812,4.02034 -4.7135,7.97137 0.62384,0.0693 2.07948,0.13863 1.45564,0 3.32718,0.0693 1.94086,0.0693 4.15898,0.20795 2.21812,0.0693 4.2976,0.13863 2.07949,0.0693 3.88171,0.13863 1.80223,0.0693 2.9806,0.13863 1.38633,0.0693 2.01017,1.38633 0.62385,1.31701 0.62385,3.32718 0,2.42607 -1.38633,3.95102 -1.38632,1.52496 -3.04991,1.52496 l -26.61744,0 q -2.01017,2.77265 -4.08966,5.47599 -2.01017,2.63401 -3.74307,4.78282 -0.27727,4.2976 -0.48522,8.45658 -0.0693,1.80222 -0.13863,3.74308 -0.0693,1.87153 -0.13863,3.74307 -0.0693,1.87154 -0.13864,3.60445 0,1.7329 0,3.18854 0,3.74308 0.69317,6.30778 0.69316,2.5647 2.01017,4.22829 1.31701,1.59428 3.18855,2.35676 1.94085,0.69316 4.2976,0.69316 1.45564,0 3.60445,-0.69316 2.21812,-0.69317 4.78282,-1.87154 2.63402,-1.24769 5.47598,-2.91128 2.91128,-1.66359 5.68393,-3.60445 2.84197,-2.01017 5.40667,-4.15897 2.5647,-2.21812 4.64419,-4.50556 l 0,17.74496 z m -22.1812,-87.75437 q 0,-0.76248 -0.13863,-1.66359 -0.0693,-0.97043 -0.4159,-1.80222 -0.34658,-0.8318 -1.10906,-1.38633 -0.69316,-0.55453 -2.01017,-0.55453 -1.80222,0 -3.67376,3.18855 -1.80222,3.18855 -3.53513,8.17932 -1.66359,4.92145 -3.18855,10.88265 -1.45564,5.9612 -2.70333,11.57581 1.03974,0.13864 2.07949,0.27727 1.03974,0.0693 2.1488,0.20795 2.07949,-3.53513 4.29761,-7.62479 2.28743,-4.15898 4.08966,-8.11 1.80222,-4.02034 2.9806,-7.48616 1.17837,-3.46581 1.17837,-5.68393 z" />
          <path
             id="path4162"
             style="font-style:normal;font-variant:normal;font-weight:normal;font-stretch:normal;font-family:Pacifico;-inkscape-font-specification:Pacifico;letter-spacing:4.05599022px;word-spacing:0px"
             d="m 869.27366,948.76146 q -2.49538,2.28743 -6.23846,4.92145 -3.67376,2.5647 -7.97137,4.78282 -4.2976,2.14881 -8.80316,3.60445 -4.43624,1.45564 -8.45658,1.45564 -3.60445,0 -6.09983,-0.97043 -2.42607,-1.03974 -3.95103,-2.84197 -1.52495,-1.80222 -2.21812,-4.36692 -0.62384,-2.63402 -0.62384,-5.75325 0,-4.36692 0.97042,-10.12017 1.03975,-5.82256 2.49539,-11.99171 1.45564,-6.23846 3.04991,-12.40761 1.66359,-6.16914 2.91129,-11.36786 0.48521,-1.80222 1.94085,-3.04992 1.45564,-1.31701 3.25786,-2.07948 1.87154,-0.8318 3.8124,-1.17838 2.01017,-0.4159 3.60444,-0.4159 2.91129,0 3.95103,1.10906 1.03974,1.03975 1.03974,2.84197 0,1.52496 -0.69316,4.43624 -0.69316,2.84196 -1.73291,6.51572 -1.03974,3.60445 -2.21812,7.83274 -1.17837,4.15898 -2.21812,8.38727 -1.03974,4.15897 -1.7329,8.17931 -0.69316,3.95103 -0.69316,7.13958 0,3.11923 0.69316,4.99077 0.69316,1.80222 2.84196,1.80222 2.49539,0 5.5453,-1.73291 3.04992,-1.7329 6.16915,-4.15897 3.11923,-2.49539 6.09983,-5.1294 2.9806,-2.63402 5.26803,-4.50556 l 0,14.0712 z m -30.98436,-71.2571 q 0,-1.59428 0.69316,-3.60445 0.69317,-2.01017 2.21812,-3.74307 1.59428,-1.80223 4.15898,-2.9806 2.63402,-1.2477 6.51573,-1.2477 2.42606,0 4.57487,0.55453 2.1488,0.55453 3.74308,1.73291 1.59427,1.10906 2.49538,2.9806 0.97043,1.87154 0.97043,4.43624 0,2.35675 -0.76248,4.57487 -0.76248,2.21812 -2.42607,3.95103 -1.66359,1.7329 -4.22829,2.84196 -2.49539,1.03975 -6.03051,1.03975 -6.09983,0 -9.01112,-2.84197 -2.91128,-2.91128 -2.91128,-7.6941 z" />
          <path
             id="path4164"
             style="font-style:normal;font-variant:normal;font-weight:normal;font-stretch:normal;font-family:Pacifico;-inkscape-font-specification:Pacifico;letter-spacing:4.05599022px;word-spacing:0px"
             d="m 868.33886,949.03872 q 0,-4.57487 0.55453,-10.53607 0.55453,-6.03051 1.38632,-12.19966 0.8318,-6.23846 1.87154,-11.99171 1.03975,-5.75324 2.01017,-9.8429 0.76248,-3.18855 2.91129,-5.33735 2.21812,-2.14881 5.96119,-2.14881 3.74308,0 5.19872,2.28744 1.45564,2.28743 1.45564,6.09983 0,1.03974 -0.20795,2.84196 -0.20794,1.73291 -0.55453,3.88171 -0.27726,2.07949 -0.62384,4.36693 -0.34658,2.21812 -0.69316,4.15897 -0.27727,1.87154 -0.48522,3.32718 -0.20795,1.38633 -0.20795,1.87154 l 1.38633,0 q 0.4159,-0.76248 1.31701,-2.42607 0.90111,-1.7329 2.07948,-3.95102 1.17838,-2.21812 2.49539,-4.64419 1.38632,-2.49539 2.5647,-4.71351 1.17838,-2.28743 2.1488,-4.02034 0.97043,-1.73291 1.45564,-2.5647 2.21812,-3.74308 5.06009,-5.1294 2.84197,-1.38633 6.30778,-1.38633 3.46581,0 5.47598,2.91128 2.07949,2.91129 2.07949,8.04069 0,0.76248 -0.34658,2.5647 -0.27727,1.80222 -0.76248,4.29761 -0.48521,2.49538 -1.10906,5.47598 -0.55453,2.9806 -1.03974,6.09983 -0.48522,3.11923 -0.8318,6.16915 -0.27726,3.04991 -0.27726,5.61461 0,4.29761 1.03974,7.07026 1.10906,2.77265 3.3965,2.77265 1.03974,0 2.35675,-0.62385 1.38632,-0.62384 2.91128,-1.59427 1.59427,-1.03974 3.18855,-2.35675 1.66359,-1.31701 3.25786,-2.70334 3.67376,-3.25786 7.6941,-7.34752 l 1.17838,15.52684 -3.46581,2.63402 q -2.84197,2.1488 -5.82257,4.2976 -2.91128,2.14881 -6.09983,3.88171 -3.18854,1.66359 -6.65436,2.77265 -3.46581,1.03975 -7.2782,1.03975 -3.81239,0 -6.44641,-5.47599 -2.5647,-5.5453 -2.5647,-16.15068 0,-4.15898 0.55453,-8.9418 0.55453,-4.85213 1.38632,-10.39743 l -1.10906,0 -18.16085,36.04444 q -1.38633,2.84197 -3.11924,3.88171 -1.7329,1.03975 -4.02034,1.03975 -2.84196,0 -4.57487,-1.17838 -1.73291,-1.24769 -2.70333,-3.25786 -0.90111,-2.07949 -1.2477,-4.64419 -0.27726,-2.63402 -0.27726,-5.40667 z" />
          <path
             id="path4166"
             style="font-style:normal;font-variant:normal;font-weight:normal;font-stretch:normal;font-family:Pacifico;-inkscape-font-specification:Pacifico;letter-spacing:4.05599022px;word-spacing:0px"
             d="m 965.34794,956.24761 q -3.74308,3.32718 -7.83274,5.40667 -4.02034,2.01017 -7.83273,2.01017 -3.32718,0 -6.51573,-1.31701 -3.11923,-1.38632 -5.5453,-3.88171 -2.42607,-2.5647 -3.88171,-6.16914 -1.45564,-3.67376 -1.45564,-8.24864 0,-5.19872 1.45564,-10.6747 1.45564,-5.47598 4.02034,-10.6747 2.5647,-5.26804 6.03052,-9.91222 3.53512,-4.64419 7.6941,-8.11 4.15897,-3.46582 8.73385,-5.47599 4.64418,-2.07949 9.42701,-2.07949 1.59427,0 2.49538,0.62385 0.90111,0.62385 1.45564,1.45564 0.62385,0.76248 1.17838,1.52496 0.55453,0.76248 1.38632,1.10906 0.8318,0.34658 1.66359,0.48521 0.90111,0.0693 1.80223,0.0693 0.76247,0 1.52495,0 0.8318,-0.0693 1.59428,-0.0693 1.03974,0 1.94085,0.20795 0.90111,0.20795 1.59427,0.90111 0.69317,0.69317 1.03975,1.94086 0.4159,1.24769 0.4159,3.39649 0,1.80223 -0.27727,4.85214 -0.27726,3.04992 -0.76248,6.79299 -0.48521,3.74308 -1.10906,7.97137 -0.55453,4.15898 -1.17837,8.17932 -1.45565,9.56564 -3.32718,20.44829 2.07948,-1.17838 4.50555,-2.91128 2.42607,-1.73291 5.40667,-4.64419 2.9806,-2.91128 6.65436,-7.27821 3.67379,-4.43624 8.24859,-11.02128 l 3.3272,15.38821 q -1.2477,2.1488 -3.2578,4.43624 -1.9409,2.21812 -4.367,4.50555 -2.35672,2.21812 -4.99073,4.36693 -2.56471,2.07948 -5.06009,3.95102 -5.89188,4.43624 -12.68487,8.59522 -1.31701,7.41684 -3.11923,14.41778 -1.80223,7.07025 -4.29761,13.17008 -2.42607,6.16914 -5.61462,11.29854 -3.11923,5.1294 -7.13957,8.8032 -3.95103,3.6737 -8.87248,5.6839 -4.92145,2.0795 -10.88265,2.0795 -2.35675,0 -5.1294,-0.4852 -2.70334,-0.4852 -5.06009,-1.9409 -2.28744,-1.4556 -3.81239,-4.1589 -1.52496,-2.7034 -1.52496,-7.2089 0,-3.1193 1.59427,-7.0703 1.59428,-3.8817 4.36693,-8.24863 2.77265,-4.29761 6.58504,-9.01111 3.81239,-4.64419 8.24863,-9.28838 4.50556,-4.64419 9.3577,-9.14974 4.92145,-4.50556 9.91222,-8.59522 l 1.87154,-6.44641 z m -15.31889,-15.18026 q 0,1.73291 0.20795,3.3965 0.27726,1.59427 0.90111,2.91128 0.62384,1.2477 1.66359,2.07949 1.03974,0.76248 2.63402,0.76248 2.5647,0 4.64418,-2.21812 2.07949,-2.21812 3.60445,-5.33735 1.52496,-3.11923 2.42607,-6.44641 0.97042,-3.32718 1.24769,-5.5453 l 4.22829,-20.37898 q -2.84197,0 -5.5453,1.45564 -2.70333,1.38633 -5.1294,3.8124 -2.35675,2.42606 -4.36692,5.5453 -2.01018,3.11923 -3.46582,6.58504 -1.45564,3.39649 -2.28743,6.86231 -0.76248,3.46581 -0.76248,6.51572 z m -10.25881,73.47525 q 2.91129,0 5.47599,-1.7329 2.63401,-1.6636 4.78282,-4.4363 2.21812,-2.7726 4.02034,-6.3077 1.80222,-3.53518 3.18855,-7.27826 1.38632,-3.67376 2.35675,-7.20888 0.97043,-3.53513 1.52496,-6.30778 -2.70334,1.80222 -5.5453,4.2976 -2.77265,2.49539 -5.47599,5.33735 -2.63401,2.91129 -5.06008,5.9612 -2.35675,3.04992 -4.15898,5.82257 -1.80222,2.842 -2.84196,5.268 -1.03975,2.4261 -1.03975,4.0204 0,2.5647 2.77265,2.5647 z" />
        </g>
      </g>
    </g>
  </g>
</svg>
