<?xml version="1.0" encoding="UTF-8" standalone="no"?>
<svg
   xmlns:dc="http://purl.org/dc/elements/1.1/"
   xmlns:cc="http://creativecommons.org/ns#"
   xmlns:rdf="http://www.w3.org/1999/02/22-rdf-syntax-ns#"
   xmlns:svg="http://www.w3.org/2000/svg"
   xmlns="http://www.w3.org/2000/svg"
   version="1.1"
   id="svg2"
   viewBox="0 0 1033.714 256.00001"
   height="256"
   width="1033.714">
  <defs
     id="defs4" />
  <metadata
     id="metadata7">
    <rdf:RDF>
      <cc:Work
         rdf:about="">
        <dc:format>image/svg+xml</dc:format>
        <dc:type
           rdf:resource="http://purl.org/dc/dcmitype/StillImage" />
        <dc:title></dc:title>
      </cc:Work>
    </rdf:RDF>
  </metadata>
  <g
     transform="translate(0,-796.36214)"
     id="layer1">
    <g
       transform="matrix(0.98619567,0,0,0.98619567,2.9553282,12.760205)"
       id="text4285"
       style="font-style:normal;font-weight:normal;font-size:40px;line-height:125%;font-family:sans-serif;letter-spacing:0px;word-spacing:0px;fill:#000000;fill-opacity:1;stroke:none;stroke-width:1px;stroke-linecap:butt;stroke-linejoin:miter;stroke-opacity:1">
      <g
         transform="matrix(0.98619572,0,0,0.98619572,18.067992,8.0433473)"
         id="text4528"
         style="font-style:normal;font-weight:normal;font-size:141.95967102px;line-height:125%;font-family:sans-serif;letter-spacing:0px;word-spacing:-12.16797066px;fill:#000000;fill-opacity:1;stroke:none;stroke-width:1px;stroke-linecap:butt;stroke-linejoin:miter;stroke-opacity:1">
        <g
           id="text4137"
           style="font-style:normal;font-weight:normal;font-size:141.7368927px;line-height:125%;font-family:sans-serif;letter-spacing:1.01240623px;word-spacing:-8.09924984px;fill:#000000;fill-opacity:1;stroke:none;stroke-width:1px;stroke-linecap:butt;stroke-linejoin:miter;stroke-opacity:1"
           transform="scale(1.0015718,0.99843067)">
          <path
             id="path4140"
             style="font-style:normal;font-variant:normal;font-weight:normal;font-stretch:normal;font-family:Pacifico;-inkscape-font-specification:Pacifico;letter-spacing:0px;word-spacing:0px"
             d="m 46.108066,965.68525 q -9.779846,0 -17.717112,-4.81906 -7.795529,-4.81905 -12.331109,-13.89021 -4.535581,-9.2129 -4.535581,-21.68575 0,-21.54401 9.212898,-39.82806 9.212898,-18.4258 27.213484,-29.48128 18.000585,-11.19721 43.229752,-11.19721 6.519897,0 13.890212,0.99216 7.51206,0.99215 13.60675,2.97647 3.96863,1.1339 3.96863,5.66948 0,3.68516 -2.83474,6.9451 -2.693,3.25995 -6.37816,3.25995 -1.1339,0 -1.70084,-0.14173 -7.37032,-1.70085 -12.614586,-2.40953 -5.244265,-0.85042 -11.055478,-0.85042 -18.000585,0 -30.615169,8.78768 -12.614583,8.64595 -18.851006,22.96138 -6.236424,14.31543 -6.236424,30.89864 0,12.04764 4.677318,18.70927 4.819054,6.5199 12.472846,6.5199 8.645951,0 15.165848,-7.08684 6.519897,-7.08685 11.905899,-22.96138 5.386002,-15.87453 10.630267,-43.08802 0.850421,-3.96863 3.401685,-5.386 2.551264,-1.41737 6.803371,-1.41737 10.063319,0 10.063319,6.5199 0,1.1339 -0.42521,2.83474 -3.68516,13.74848 -6.80337,30.47343 -2.976476,16.58322 -2.976476,25.22917 0,7.65379 2.267791,11.19721 2.267785,3.40169 6.945105,3.40169 4.53558,0 8.64595,-2.97648 4.11037,-3.11821 10.3468,-10.48853 1.70084,-1.98431 3.82689,-1.98431 1.84258,0 2.83474,1.70084 1.1339,1.70084 1.1339,4.67732 0,5.52773 -2.69301,8.78768 -6.9451,8.36248 -13.60674,12.75632 -6.66163,4.39385 -16.29974,4.39385 -9.921583,0 -16.016269,-5.66948 -6.094687,-5.81121 -7.653792,-16.29974 -10.48853,21.96922 -30.898643,21.96922 z" />
          <path
             id="path4142"
             style="font-style:normal;font-variant:normal;font-weight:normal;font-stretch:normal;font-family:Pacifico;-inkscape-font-specification:Pacifico;letter-spacing:0px;word-spacing:0px"
             d="m 175.39426,933.36924 q 1.84258,0 2.83474,1.70084 1.13389,1.70084 1.13389,4.67732 0,5.66947 -2.693,8.78768 -6.09469,7.51206 -13.32327,12.33111 -7.08684,4.81906 -16.158,4.81906 -12.47285,0 -18.56754,-11.33895 -5.95295,-11.33896 -5.95295,-29.33954 0,-17.2919 4.39385,-39.40286 4.53558,-22.11095 13.18153,-37.98548 8.78769,-15.87454 20.83532,-15.87454 6.80337,0 10.63027,6.37816 3.96863,6.23643 3.96863,18.00059 0,16.86669 -9.35463,39.11938 -9.35464,22.25269 -25.37091,44.08017 0.99216,5.81122 3.25995,8.36248 2.26779,2.40953 5.95295,2.40953 5.81121,0 10.20506,-3.25995 4.39384,-3.40169 11.19721,-11.48069 1.70084,-1.98431 3.8269,-1.98431 z m -17.43364,-87.5934 q -3.25995,0 -7.37032,11.76416 -4.11037,11.76416 -7.22858,29.1978 -3.11821,17.43364 -3.40169,33.4499 10.06332,-16.58321 16.01627,-33.16643 5.95295,-16.72495 5.95295,-30.47343 0,-10.772 -3.96863,-10.772 z" />
          <path
             id="path4144"
             style="font-style:normal;font-variant:normal;font-weight:normal;font-stretch:normal;font-family:Pacifico;-inkscape-font-specification:Pacifico;letter-spacing:0px;word-spacing:0px"
             d="m 238.06632,921.88855 q 0.42521,-0.14174 1.41737,-0.14174 2.12605,0 3.25995,1.41737 1.13389,1.41737 1.13389,3.8269 0,4.39384 -1.70084,6.9451 -1.70084,2.40953 -5.10253,3.54343 -6.51989,2.12605 -13.89021,2.12605 -6.23643,0 -11.76417,-1.70084 -4.11037,6.66163 -9.07116,13.74847 -5.66947,8.07901 -9.77984,11.05548 -4.11037,2.97648 -9.35464,2.97648 -5.81121,0 -9.21289,-4.53558 -3.25995,-4.53558 -4.11037,-14.31543 -1.70085,-19.84316 -1.70085,-34.72554 l 0,-4.96079 q 0.14174,-4.67732 2.55127,-6.5199 2.40952,-1.84258 7.22858,-1.84258 3.68516,0 5.386,1.70085 1.84258,1.5591 1.84258,5.386 0,16.29974 1.98432,42.37933 8.50421,-12.61458 12.75632,-20.12664 -2.12606,-4.11037 -2.12606,-9.77985 0,-4.81905 2.12606,-9.35463 2.12605,-4.53558 5.81121,-7.37032 3.68516,-2.83474 8.36248,-2.83474 4.11037,0 6.66163,2.97648 2.55126,2.83474 2.55126,8.36248 0,6.37816 -3.40168,14.59889 5.386,-0.28347 14.31542,-2.12605 l 3.8269,-0.70868 z" />
          <path
             id="path4146"
             style="font-style:normal;font-variant:normal;font-weight:normal;font-stretch:normal;font-family:Pacifico;-inkscape-font-specification:Pacifico;letter-spacing:0px;word-spacing:0px"
             d="m 304.14672,933.65271 q 1.84258,0 2.83473,1.84258 1.1339,1.70084 1.1339,4.39384 0,3.25995 -0.99216,5.10253 -0.99216,1.84258 -3.11821,3.25995 l -27.21348,18.28406 q -5.38601,29.33954 -14.17369,46.06453 -8.64595,16.8666 -22.11096,16.8666 -7.22858,0 -11.76416,-4.5355 -4.53558,-4.3939 -4.53558,-11.6225 0,-6.6616 2.97647,-13.6067 3.11821,-6.94511 11.33895,-16.01627 8.36248,-8.92942 23.52833,-20.55185 l 0.42521,-3.25995 q 0.99216,-5.24426 2.26779,-15.02411 -2.83474,10.20506 -7.93727,15.59106 -5.10252,5.24427 -10.772,5.24427 -6.37816,0 -10.48853,-5.81122 -3.96863,-5.95295 -3.96863,-14.74063 0,-10.63027 1.41737,-19.41796 1.41736,-8.92942 4.67731,-18.851 1.41737,-4.25211 3.96864,-6.09469 2.55126,-1.84258 8.079,-1.84258 3.11821,0 4.25211,0.99216 1.27563,0.99216 1.27563,2.97647 0,1.1339 -1.55911,7.6538 -1.41737,5.24426 -2.26779,9.49637 -1.13389,5.81121 -1.98431,11.19721 -0.85043,5.24427 -0.85043,8.64595 0,5.386 2.97648,5.386 2.12605,0 5.24426,-4.2521 3.25995,-4.25211 6.80337,-12.89806 3.68516,-8.64595 7.08685,-21.26053 1.13389,-4.25211 3.40168,-6.09469 2.40953,-1.84258 7.08685,-1.84258 3.25995,0 4.53558,0.85042 1.27563,0.85042 1.27563,2.83474 0,3.54342 -3.68516,24.37875 l -3.68516,22.81963 q 10.91374,-8.22073 21.26054,-15.02411 1.84258,-1.13389 3.25995,-1.13389 z m -62.08076,82.06569 q 3.54342,0 7.93726,-8.2208 4.39385,-8.22071 8.78769,-27.35519 -10.91374,9.2129 -15.87453,16.72495 -4.81906,7.65384 -4.81906,13.32324 0,2.4096 0.85042,3.9687 0.99216,1.5591 3.11822,1.5591 z" />
          <path
             id="path4148"
             style="font-style:normal;font-variant:normal;font-weight:normal;font-stretch:normal;font-family:Pacifico;-inkscape-font-specification:Pacifico;letter-spacing:0px;word-spacing:0px"
             d="m 340.36271,944.99166 q 1.5591,-1.41737 3.11821,-1.41737 1.70084,0 2.693,1.98432 1.13389,1.84258 1.13389,4.53558 0,5.95295 -4.2521,9.49637 -7.37032,6.09469 -16.72496,6.09469 -13.465,0 -19.70142,-11.19722 -6.23643,-11.33895 -6.23643,-29.48127 0,-17.2919 4.39385,-39.40286 4.53558,-22.11095 13.18153,-37.98548 8.78769,-15.87454 20.83532,-15.87454 6.80337,0 10.63027,6.37816 3.96863,6.23643 3.96863,18.00059 0,16.86669 -9.35463,39.11938 -9.2129,22.25269 -25.22917,43.93844 0.99216,5.81121 3.54342,8.36247 2.55127,2.55127 6.94511,2.55127 2.40953,0 5.386,-1.41737 3.11821,-1.41737 5.66948,-3.68516 z m -4.67732,-99.21582 q -3.25995,0 -7.37032,11.76416 -4.11037,11.76416 -7.22858,29.1978 -3.11821,17.43364 -3.40169,33.4499 10.06332,-16.58321 16.01627,-33.16643 5.95295,-16.72495 5.95295,-30.47343 0,-10.772 -3.96863,-10.772 z" />
          <path
             id="path4150"
             style="font-style:normal;font-variant:normal;font-weight:normal;font-stretch:normal;font-family:Pacifico;-inkscape-font-specification:Pacifico;letter-spacing:0px;word-spacing:0px"
             d="m 446.49706,965.68525 q -16.86669,0 -29.33954,-6.09469 -12.47285,-6.23642 -19.13448,-17.57537 -6.66163,-11.33896 -6.66163,-26.36307 0,-20.83532 7.79553,-36.99333 7.93726,-16.158 21.40227,-24.94569 13.465,-8.92942 29.90648,-8.92942 15.30759,0 23.24485,7.93726 7.93727,7.79553 7.93727,20.69359 0,8.64595 -3.11821,13.89022 -2.97648,5.24426 -8.64596,5.24426 -3.96863,0 -6.23642,-1.84258 -2.26779,-1.84258 -2.26779,-5.386 0,-1.27563 0.56695,-4.67732 0.85042,-4.25211 0.85042,-6.80337 0,-12.89806 -13.74848,-12.89806 -9.35463,0 -17.85885,6.09469 -8.50421,6.09469 -13.74848,18.00059 -5.24426,11.76416 -5.24426,28.0639 0,17.00843 9.49637,26.36306 9.49637,9.2129 28.06391,9.2129 9.21289,0 18.56753,-2.26779 9.49637,-2.40953 20.97706,-7.22858 2.12605,-0.85042 3.54342,-0.85042 2.26779,0 3.40169,1.70084 1.13389,1.70084 1.13389,4.39384 0,8.64595 -9.35463,12.75632 -10.06332,4.39385 -20.97706,6.5199 -10.77201,1.98432 -20.55185,1.98432 z" />
          <path
             id="path4152"
             style="font-style:normal;font-variant:normal;font-weight:normal;font-stretch:normal;font-family:Pacifico;-inkscape-font-specification:Pacifico;letter-spacing:0px;word-spacing:0px"
             d="m 557.16257,921.46334 q 1.84258,0 2.83474,1.84258 0.99216,1.84258 0.99216,4.67731 0,6.80337 -4.11037,8.07901 -8.50421,2.97647 -18.70927,3.40168 -2.693,11.9059 -10.63027,19.13448 -7.93726,7.08685 -18.00058,7.08685 -8.50422,0 -14.5989,-4.11037 -5.95295,-4.11037 -9.07116,-10.91374 -3.11822,-6.80337 -3.11822,-14.74064 0,-10.772 4.11037,-19.13448 4.11037,-8.50421 11.33896,-13.18153 7.22858,-4.81906 16.01627,-4.81906 10.772,0 17.2919,7.51206 6.66163,7.37032 7.79553,18.28406 6.66163,-0.42521 15.87453,-2.83474 1.13389,-0.28347 1.98431,-0.28347 z m -46.4897,29.1978 q 4.53558,0 7.79553,-3.68516 3.40169,-3.68516 4.53558,-10.63027 -4.39384,-2.97647 -6.80337,-7.79553 -2.26779,-4.81905 -2.26779,-10.20506 0,-2.26779 0.42521,-4.53558 l -0.70868,0 q -5.66948,0 -9.49637,5.52774 -3.68516,5.386 -3.68516,15.30759 0,7.79553 2.97647,11.9059 3.11821,4.11037 7.22858,4.11037 z" />
          <path
             id="path4154"
             style="font-style:normal;font-variant:normal;font-weight:normal;font-stretch:normal;font-family:Pacifico;-inkscape-font-specification:Pacifico;letter-spacing:0px;word-spacing:0px"
             d="m 558.88777,965.68525 q -5.386,0 -7.65379,-5.66948 -2.12606,-5.66947 -2.12606,-18.14232 0,-18.4258 5.24427,-35.00901 1.27563,-4.11037 4.11037,-5.95295 2.97647,-1.98432 8.22074,-1.98432 2.83474,0 3.96863,0.70868 1.1339,0.70869 1.1339,2.69301 0,2.26779 -2.12606,10.20505 -1.41736,5.66948 -2.26779,9.92158 -0.85042,4.25211 -1.41736,10.48853 4.67731,-12.18937 10.48853,-19.84316 5.81121,-7.65379 11.33895,-10.91374 5.66947,-3.25995 10.34679,-3.25995 9.2129,0 9.2129,9.2129 0,5.52774 -3.11821,19.9849 -2.693,12.33111 -2.693,16.29974 0,5.66948 4.11037,5.66948 2.83473,0 6.66163,-3.40169 3.96863,-3.54342 10.48853,-11.33895 1.70084,-1.98431 3.8269,-1.98431 1.84257,0 2.83473,1.70084 1.1339,1.70084 1.1339,4.67732 0,5.66947 -2.693,8.78768 -6.09469,7.51206 -13.18153,12.33111 -6.94511,4.81906 -15.87454,4.81906 -7.22858,0 -10.91374,-4.11037 -3.68516,-4.25211 -3.68516,-12.18938 0,-3.96863 1.98432,-14.17368 1.84258,-8.92943 1.84258,-12.33111 0,-2.26779 -1.55911,-2.26779 -1.84258,0 -5.24426,4.81905 -3.25995,4.67732 -6.80337,12.47285 -3.40169,7.79553 -5.52774,16.44148 -1.55911,6.66163 -3.68516,9.07116 -1.98432,2.26779 -6.37816,2.26779 z" />
          <path
             id="path4156"
             style="font-style:normal;font-variant:normal;font-weight:normal;font-stretch:normal;font-family:Pacifico;-inkscape-font-specification:Pacifico;letter-spacing:0px;word-spacing:0px"
             d="m 645.50233,968.80346 q -7.37032,0 -11.33895,-3.40169 -3.8269,-3.40168 -3.8269,-7.65379 0,-3.68516 2.69301,-6.37816 2.693,-2.693 7.93726,-2.693 1.84258,0 4.25211,0.42521 2.55126,0.28347 3.82689,0.42521 -0.14173,-3.68516 -1.70084,-6.94511 -1.41737,-3.25995 -3.68516,-6.23642 -2.26779,-3.11821 -4.2521,-5.386 -4.39385,8.36247 -8.78769,13.89021 -4.25211,5.52774 -9.35464,10.48853 -2.55126,2.55127 -5.386,2.55127 -2.26779,0 -3.68516,-1.55911 -1.41737,-1.70084 -1.41737,-4.11037 0,-2.83474 1.98432,-5.24426 l 1.84258,-2.26779 q 7.79553,-9.63811 11.76416,-15.87454 2.40953,-4.11037 5.66948,-10.91374 3.25995,-6.9451 6.37816,-14.31542 2.693,-6.23643 11.19721,-6.23643 3.96864,0 5.52774,0.70869 1.55911,0.70868 1.55911,2.26779 0,0.85042 -0.56695,2.693 -0.56695,1.84258 -1.55911,3.68516 -2.55126,5.10253 -2.55126,8.64595 0,2.12605 1.41737,4.67732 1.5591,2.55126 4.67732,6.37816 4.53558,5.95295 6.80337,10.20505 2.40952,4.11037 2.40952,9.07117 0,1.41736 -0.28347,3.96863 6.94511,-2.693 16.29974,-14.31543 1.70085,-1.98431 3.8269,-1.98431 1.84258,0 2.83474,1.70084 1.13389,1.70084 1.13389,4.67732 0,5.386 -2.693,8.78768 -7.08684,8.78769 -13.60674,12.04764 -6.37816,3.11821 -15.87453,3.40168 -5.66948,4.81906 -13.46501,4.81906 z" />
          <path
             id="path4158"
             style="font-style:normal;font-variant:normal;font-weight:normal;font-stretch:normal;font-family:Pacifico;-inkscape-font-specification:Pacifico;letter-spacing:0px;word-spacing:0px"
             d="m 694.22217,965.68525 q -6.37816,0 -10.48853,-5.81122 -3.96864,-5.95295 -3.96864,-14.74063 0,-10.63027 1.41737,-19.41796 1.41737,-8.92942 4.67732,-18.851 1.41737,-4.25211 3.96863,-6.09469 2.55127,-1.84258 8.07901,-1.84258 3.11821,0 4.2521,0.99216 1.27563,0.99216 1.27563,2.97647 0,1.1339 -1.5591,7.6538 -1.41737,5.24426 -2.26779,9.49637 -2.83474,14.88237 -2.83474,19.84316 0,2.97648 0.70868,4.25211 0.70869,1.13389 2.26779,1.13389 2.12606,0 5.24427,-4.2521 3.25995,-4.25211 6.80337,-12.89806 3.68516,-8.64595 7.08685,-21.26053 1.13389,-4.25211 3.40168,-6.09469 2.40953,-1.84258 7.08685,-1.84258 3.25994,0 4.53558,0.85042 1.27563,0.70869 1.27563,2.83474 0,3.54342 -3.54342,19.41795 -3.96864,18.14233 -3.96864,22.39443 0,2.693 1.1339,4.25211 1.13389,1.41737 2.97647,1.41737 2.83474,0 6.66164,-3.40169 3.96863,-3.54342 10.48853,-11.33895 1.70084,-1.98431 3.82689,-1.98431 1.84258,0 2.83474,1.70084 1.1339,1.70084 1.1339,4.67732 0,5.66947 -2.69301,8.78768 -6.09468,7.51206 -13.18153,12.33111 -6.9451,4.81906 -15.87453,4.81906 -6.80337,0 -10.06332,-5.24427 -3.11821,-5.24426 -3.11821,-14.74063 -2.40953,9.6381 -7.22858,14.88237 -4.81906,5.10253 -10.34679,5.10253 z" />
          <path
             id="path4160"
             style="font-style:normal;font-variant:normal;font-weight:normal;font-stretch:normal;font-family:Pacifico;-inkscape-font-specification:Pacifico;letter-spacing:0px;word-spacing:0px"
             d="m 799.09193,933.36924 q 1.84258,0 2.83474,1.70084 1.13389,1.70084 1.13389,4.67732 0,5.66947 -2.693,8.78768 -6.09469,7.51206 -13.32327,12.33111 -7.08684,4.81906 -16.158,4.81906 -12.47285,0 -18.56754,-11.33895 -5.95295,-11.33896 -5.95295,-29.33954 0,-17.2919 4.39385,-39.40286 4.53558,-22.11095 13.18153,-37.98548 8.78769,-15.87454 20.83532,-15.87454 6.80337,0 10.63027,6.37816 3.96863,6.23643 3.96863,18.00059 0,16.86669 -9.35463,39.11938 -9.35464,22.25269 -25.37091,44.08017 0.99216,5.81122 3.25995,8.36248 2.26779,2.40953 5.95295,2.40953 5.81121,0 10.20506,-3.25995 4.39384,-3.40169 11.19721,-11.48069 1.70084,-1.98431 3.8269,-1.98431 z m -17.43364,-87.5934 q -3.25995,0 -7.37032,11.76416 -4.11037,11.76416 -7.22858,29.1978 -3.11821,17.43364 -3.40169,33.4499 10.06332,-16.58321 16.01627,-33.16643 5.95295,-16.72495 5.95295,-30.47343 0,-10.772 -3.96863,-10.772 z" />
          <path
             id="path4162"
             style="font-style:normal;font-variant:normal;font-weight:normal;font-stretch:normal;font-family:Pacifico;-inkscape-font-specification:Pacifico;letter-spacing:0px;word-spacing:0px"
             d="m 854.81889,933.36924 q 1.84258,0 2.83474,1.70084 1.13389,1.70084 1.13389,4.67732 0,5.66947 -2.693,8.78768 -6.09468,7.51206 -13.32327,12.33111 -7.22858,4.81906 -16.58321,4.81906 -28.91433,0 -28.91433,-40.67849 0,-6.23642 0.42521,-12.61458 l -5.52774,0 q -4.2521,0 -5.81121,-1.55911 -1.41737,-1.55911 -1.41737,-4.96079 0,-7.93727 6.37816,-7.93727 l 8.07901,0 q 2.40952,-15.59106 7.37031,-28.48911 4.9608,-12.89806 11.9059,-20.55185 7.08685,-7.65379 15.16585,-7.65379 5.95295,0 9.35464,5.24426 3.40168,5.24427 3.40168,13.18153 0,21.96922 -18.4258,38.26896 l 15.87454,0 q 2.26779,0 3.25995,0.99216 0.99215,0.99216 0.99215,3.68516 0,9.77985 -16.01627,9.77985 l -17.2919,0 q -0.28347,7.08684 -0.28347,11.05547 0,14.74064 3.40169,20.69359 3.54342,5.95295 11.05547,5.95295 6.09469,0 10.77201,-3.68516 4.67731,-3.68516 11.05547,-11.05548 1.70085,-1.98431 3.8269,-1.98431 z M 830.01493,854.847 q -2.12605,0 -4.81905,5.386 -2.55126,5.24426 -4.96079,14.74064 -2.26779,9.35463 -3.8269,20.83532 8.36248,-7.22858 12.47285,-16.15801 4.25211,-9.07116 4.25211,-16.44148 0,-8.36247 -3.11822,-8.36247 z" />
          <path
             id="path4164"
             style="font-style:normal;font-variant:normal;font-weight:normal;font-stretch:normal;font-family:Pacifico;-inkscape-font-specification:Pacifico;letter-spacing:0px;word-spacing:0px"
             d="m 865.81459,889.57254 q -5.95295,0 -8.92942,-2.69301 -2.97648,-2.83473 -2.97648,-7.79552 0,-4.9608 3.8269,-8.22074 3.96863,-3.40169 9.77984,-3.40169 5.24427,0 8.50422,2.55126 3.25995,2.55127 3.25995,7.22859 0,5.66947 -3.68516,9.07116 -3.68516,3.25995 -9.77985,3.25995 z m -1.13389,76.11271 q -9.2129,0 -13.46501,-6.5199 -4.11037,-6.5199 -4.11037,-17.2919 0,-6.37816 1.55911,-16.29974 1.70084,-10.06332 4.2521,-18.70927 1.27564,-4.53558 3.40169,-6.23643 2.12605,-1.70084 6.80337,-1.70084 7.22858,0 7.22858,4.81905 0,3.54343 -2.693,16.44148 -3.40168,15.59106 -3.40168,21.1188 0,4.25211 1.13389,6.5199 1.1339,2.26779 3.8269,2.26779 2.55126,0 6.37816,-3.54342 3.82689,-3.54343 10.20505,-11.19722 1.70085,-1.98431 3.8269,-1.98431 1.84258,0 2.83474,1.70084 1.13389,1.70084 1.13389,4.67732 0,5.66947 -2.693,8.78768 -14.03195,17.15017 -26.22132,17.15017 z" />
          <path
             id="path4166"
             style="font-style:normal;font-variant:normal;font-weight:normal;font-stretch:normal;font-family:Pacifico;-inkscape-font-specification:Pacifico;letter-spacing:0px;word-spacing:0px"
             d="m 892.19093,965.68525 q -5.386,0 -7.65379,-5.66948 -2.12605,-5.66947 -2.12605,-18.14232 0,-18.4258 5.24426,-35.00901 1.27563,-4.11037 4.11037,-5.95295 2.97648,-1.98432 8.22074,-1.98432 2.83474,0 3.96863,0.70868 1.1339,0.70869 1.1339,2.69301 0,2.26779 -2.12605,10.20505 -1.41737,5.66948 -2.26779,9.92158 -0.85043,4.25211 -1.41737,10.48853 4.67731,-12.18937 10.48853,-19.84316 5.81121,-7.65379 11.33895,-10.91374 5.66947,-3.25995 10.34679,-3.25995 9.2129,0 9.2129,9.2129 0,5.52774 -3.11821,19.9849 -2.693,12.33111 -2.693,16.29974 0,5.66948 4.11037,5.66948 2.83473,0 6.66163,-3.40169 3.96863,-3.54342 10.48853,-11.33895 1.70084,-1.98431 3.8269,-1.98431 1.84258,0 2.83473,1.70084 1.1339,1.70084 1.1339,4.67732 0,5.66947 -2.693,8.78768 -6.09469,7.51206 -13.18153,12.33111 -6.94511,4.81906 -15.87453,4.81906 -7.22859,0 -10.91374,-4.11037 -3.68516,-4.25211 -3.68516,-12.18938 0,-3.96863 1.98431,-14.17368 1.84258,-8.92943 1.84258,-12.33111 0,-2.26779 -1.5591,-2.26779 -1.84258,0 -5.24427,4.81905 -3.25995,4.67732 -6.80337,12.47285 -3.40169,7.79553 -5.52774,16.44148 -1.5591,6.66163 -3.68516,9.07116 -1.98431,2.26779 -6.37816,2.26779 z" />
          <path
             id="path4168"
             style="font-style:normal;font-variant:normal;font-weight:normal;font-stretch:normal;font-family:Pacifico;-inkscape-font-specification:Pacifico;letter-spacing:0px;word-spacing:0px"
             d="m 1000.4912,903.60449 q 3.5435,0 4.9608,1.13389 1.5591,0.99216 1.5591,4.11037 0,1.70085 -0.1417,2.693 -0.5669,4.39385 -3.5434,22.67791 -2.1261,12.33111 -2.693,16.29974 -5.38603,36.56812 -14.59892,57.6869 -9.07117,21.2605 -24.37875,21.2605 -7.22858,0 -11.76416,-4.5355 -4.53558,-4.3939 -4.53558,-11.6225 0,-10.0633 7.93726,-21.6857 7.93727,-11.48069 29.76475,-28.34738 l 0.85042,-5.52774 q -2.40952,3.8269 -6.37816,5.95295 -3.82689,1.98432 -7.65379,1.98432 -8.78769,0 -14.03195,-6.37816 -5.24427,-6.37816 -5.24427,-16.72496 0,-11.33895 5.24427,-21.40227 5.24426,-10.20505 13.89021,-16.29974 8.78769,-6.23642 18.56754,-6.23642 3.11821,0 4.11037,1.27563 1.13389,1.13389 1.84258,4.25211 2.693,-0.56695 6.23638,-0.56695 z m -25.5126,47.76533 q 3.25995,0 6.23642,-3.96863 2.97648,-3.96864 4.25211,-11.33895 l 4.53558,-24.23701 q -5.81121,0.14173 -10.77201,4.53558 -4.96079,4.25211 -7.93726,11.33895 -2.97648,7.08684 -2.97648,15.02411 0,4.39384 1.70085,6.5199 1.84258,2.12605 4.96079,2.12605 z m -11.76416,64.34858 q 3.54342,0 7.93726,-8.5042 4.53558,-8.50426 8.64595,-27.07179 -10.91374,9.35463 -15.73279,16.86669 -4.81906,7.5121 -4.81906,13.1815 0,2.4096 0.85042,3.9687 0.99216,1.5591 3.11822,1.5591 z" />
        </g>
      </g>
    </g>
  </g>
</svg>
